<svg width="36" height="36" viewBox="0 0 36 36" fill="none" xmlns="http://www.w3.org/2000/svg">
<g clip-path="url(#clip0_1405_113)">
<circle cx="18" cy="18" r="15" fill="black"/>
<path d="M17.9999 0.000187674C14.4399 0.000187674 10.9598 1.05586 7.9997 3.03372C5.03963 5.01157 2.73254 7.82277 1.37017 11.1118C0.00779915 14.4009 -0.348659 18.0201 0.345871 21.5117C1.0404 25.0033 2.75473 28.2106 5.27206 30.7279C7.78939 33.2453 10.9967 34.9596 14.4883 35.6541C17.9799 36.3487 21.5991 35.9922 24.8882 34.6298C28.1772 33.2675 30.9884 30.9604 32.9663 28.0003C34.9441 25.0402 35.9998 21.5601 35.9998 18.0001C36.0106 15.6333 35.5525 13.2878 34.6517 11.099C33.751 8.91029 32.4255 6.92169 30.7519 5.24809C29.0783 3.57448 27.0897 2.24903 24.901 1.34829C22.7122 0.447542 20.3667 -0.0106446 17.9999 0.000187674ZM17.9999 32.7273C15.0871 32.7273 12.2398 31.8635 9.81792 30.2453C7.39605 28.6271 5.50842 26.327 4.39376 23.6359C3.27909 20.9449 2.98744 17.9838 3.5557 15.127C4.12395 12.2702 5.52658 9.64603 7.58621 7.58639C9.64585 5.52676 12.27 4.12413 15.1268 3.55588C17.9836 2.98762 20.9447 3.27927 23.6358 4.39394C26.3268 5.5086 28.6269 7.39623 30.2451 9.8181C31.8634 12.24 32.7271 15.0873 32.7271 18.0001C32.7056 21.8994 31.1471 25.6328 28.3899 28.39C25.6326 31.1473 21.8992 32.7058 17.9999 32.7273Z" fill="#9191A2"/>
<path d="M18.4999 15.2272C18.0659 15.2272 17.6497 15.3996 17.3428 15.7065C17.0359 16.0133 16.8635 16.4295 16.8635 16.8635V26.6817C16.8635 27.1156 17.0359 27.5319 17.3428 27.8387C17.6497 28.1456 18.0659 28.318 18.4999 28.318C18.9339 28.318 19.3501 28.1456 19.657 27.8387C19.9638 27.5319 20.1362 27.1156 20.1362 26.6817V16.8635C20.1362 16.4295 19.9638 16.0133 19.657 15.7065C19.3501 15.3996 18.9339 15.2272 18.4999 15.2272Z" fill="#9191A2"/>
<path d="M18.4999 11.9545C19.4036 11.9545 20.1362 11.2219 20.1362 10.3181C20.1362 9.41438 19.4036 8.68176 18.4999 8.68176C17.5961 8.68176 16.8635 9.41438 16.8635 10.3181C16.8635 11.2219 17.5961 11.9545 18.4999 11.9545Z" fill="#9191A2"/>
</g>
<defs>
<clipPath id="clip0_1405_113">
<rect width="36" height="36" fill="white"/>
</clipPath>
</defs>
</svg>
