<svg width="34" height="34" viewBox="0 0 34 34" fill="none" xmlns="http://www.w3.org/2000/svg">
<path d="M28.7378 3.00008C28.7378 2.18688 28.2453 1.45464 27.4922 1.14786C26.7392 0.841062 25.8754 1.0208 25.3072 1.60253L23.3058 3.6513C17.6506 1.04938 10.7747 2.12778 6.14119 6.87112C0.175106 12.9786 0.175106 22.8621 6.14119 28.9695C12.1328 35.1031 21.8672 35.1031 27.8586 28.9695C31.3344 25.4114 32.7781 20.5781 32.2146 15.9722C32.0805 14.8759 31.0832 14.0957 29.9866 14.2298C28.8904 14.3639 28.1101 15.3615 28.2442 16.4578C28.6685 19.9263 27.5778 23.5327 24.9973 26.1743C20.5752 30.7015 13.4248 30.7015 9.00255 26.1743C4.55465 21.621 4.55465 14.2197 9.00255 9.66621C12.0578 6.5384 16.412 5.57413 20.2666 6.76245L18.236 8.84122C17.6738 9.41685 17.5112 10.2734 17.8234 11.015C18.1357 11.7566 18.8621 12.2388 19.6666 12.2388H26.7378C27.8424 12.2388 28.7378 11.3434 28.7378 10.2388V3.00008Z" fill="#9191A2"/>
</svg>
