<svg width="50" height="50" viewBox="0 0 50 50" fill="none" xmlns="http://www.w3.org/2000/svg">
<rect width="50" height="50" rx="10" fill="black"/>
<path d="M36.7378 11.0001C36.7378 10.1869 36.2453 9.45464 35.4922 9.14786C34.7392 8.84106 33.8754 9.0208 33.3072 9.60253L31.3058 11.6513C25.6506 9.04938 18.7747 10.1278 14.1412 14.8711C8.17511 20.9786 8.17511 30.8621 14.1412 36.9695C20.1328 43.1031 29.8672 43.1031 35.8586 36.9695C39.3344 33.4114 40.7781 28.578 40.2146 23.9722C40.0805 22.8759 39.0832 22.0957 37.9866 22.2298C36.8904 22.3639 36.1101 23.3615 36.2442 24.4578C36.6685 27.9263 35.5778 31.5327 32.9973 34.1743C28.5752 38.7015 21.4248 38.7015 17.0025 34.1743C12.5547 29.621 12.5547 22.2197 17.0025 17.6662C20.0578 14.5384 24.412 13.5741 28.2666 14.7624L26.236 16.8412C25.6738 17.4169 25.5112 18.2734 25.8234 19.015C26.1357 19.7566 26.8621 20.2388 27.6666 20.2388H34.7378C35.8424 20.2388 36.7378 19.3434 36.7378 18.2388V11.0001Z" fill="#9191A2"/>
</svg>
