<svg width="26" height="29" viewBox="0 0 26 29" fill="none" xmlns="http://www.w3.org/2000/svg">
<g filter="url(#filter0_d_1_1148)">
<path d="M13 21C11.22 21 9.47991 20.4722 7.99987 19.4832C6.51983 18.4943 5.36628 17.0887 4.68509 15.4442C4.0039 13.7996 3.82567 11.99 4.17294 10.2442C4.5202 8.49836 5.37737 6.89472 6.63604 5.63604C7.89472 4.37737 9.49836 3.5202 11.2442 3.17294C12.99 2.82567 14.7996 3.0039 16.4442 3.68509C18.0887 4.36628 19.4943 5.51983 20.4832 6.99987C21.4722 8.47991 22 10.22 22 12C22 14.387 21.0518 16.6761 19.364 18.364C17.6761 20.0518 15.387 21 13 21ZM13 4.5C11.5166 4.5 10.0666 4.93987 8.83323 5.76398C7.59986 6.58809 6.63856 7.75943 6.07091 9.12988C5.50325 10.5003 5.35473 12.0083 5.64411 13.4632C5.9335 14.918 6.64781 16.2544 7.6967 17.3033C8.7456 18.3522 10.082 19.0665 11.5368 19.3559C12.9917 19.6453 14.4997 19.4968 15.8701 18.9291C17.2406 18.3614 18.4119 17.4001 19.236 16.1668C20.0601 14.9334 20.5 13.4834 20.5 12C20.5 10.0109 19.7098 8.10323 18.3033 6.6967C16.8968 5.29018 14.9891 4.5 13 4.5Z" fill="#EDEDED"/>
<path d="M10 15.75C9.90147 15.7504 9.80383 15.7312 9.71282 15.6934C9.62181 15.6557 9.53926 15.6001 9.47001 15.53C9.32956 15.3893 9.25067 15.1987 9.25067 15C9.25067 14.8012 9.32956 14.6106 9.47001 14.47L15.47 8.46997C15.6122 8.33749 15.8002 8.26537 15.9945 8.26879C16.1888 8.27222 16.3742 8.35093 16.5116 8.48835C16.649 8.62576 16.7278 8.81115 16.7312 9.00545C16.7346 9.19975 16.6625 9.38779 16.53 9.52997L10.53 15.53C10.4608 15.6001 10.3782 15.6557 10.2872 15.6934C10.1962 15.7312 10.0986 15.7504 10 15.75Z" fill="#EDEDED"/>
<path d="M16 15.75C15.9015 15.7504 15.8038 15.7312 15.7128 15.6934C15.6218 15.6557 15.5392 15.6001 15.47 15.53L9.47 9.52997C9.33752 9.38779 9.2654 9.19975 9.26882 9.00545C9.27225 8.81115 9.35097 8.62576 9.48838 8.48835C9.62579 8.35093 9.81118 8.27222 10.0055 8.26879C10.1998 8.26537 10.3878 8.33749 10.53 8.46997L16.53 14.47C16.6704 14.6106 16.7493 14.8012 16.7493 15C16.7493 15.1987 16.6704 15.3893 16.53 15.53C16.4608 15.6001 16.3782 15.6557 16.2872 15.6934C16.1962 15.7312 16.0985 15.7504 16 15.75Z" fill="#EDEDED"/>
</g>
<defs>
<filter id="filter0_d_1_1148" x="-3" y="0" width="32" height="32" filterUnits="userSpaceOnUse" color-interpolation-filters="sRGB">
<feFlood flood-opacity="0" result="BackgroundImageFix"/>
<feColorMatrix in="SourceAlpha" type="matrix" values="0 0 0 0 0 0 0 0 0 0 0 0 0 0 0 0 0 0 127 0" result="hardAlpha"/>
<feOffset dy="4"/>
<feGaussianBlur stdDeviation="2"/>
<feComposite in2="hardAlpha" operator="out"/>
<feColorMatrix type="matrix" values="0 0 0 0 0 0 0 0 0 0 0 0 0 0 0 0 0 0 0.25 0"/>
<feBlend mode="normal" in2="BackgroundImageFix" result="effect1_dropShadow_1_1148"/>
<feBlend mode="normal" in="SourceGraphic" in2="effect1_dropShadow_1_1148" result="shape"/>
</filter>
</defs>
</svg>
